<?xml version="1.0" encoding="UTF-8"?>
<svg xmlns="http://www.w3.org/2000/svg" xmlns:xlink="http://www.w3.org/1999/xlink" width="48pt" height="48pt" viewBox="0 0 48 48" version="1.1">
<g id="surface1">
<path style=" stroke:none;fill-rule:evenodd;fill:rgb(53.333333%,77.254902%,80%);fill-opacity:1;" d="M 48 24 C 48 10.734375 37.257812 0 23.980469 0 C 10.742188 0 0 10.734375 0 24 C 0 37.230469 10.742188 48 23.980469 48 C 37.257812 48 48 37.230469 48 24 Z M 48 24 "/>
<path style=" stroke:none;fill-rule:evenodd;fill:rgb(100%,81.568627%,35.686275%);fill-opacity:1;" d="M 15.253906 11.144531 L 33.417969 11.144531 L 37.558594 29.328125 L 36.027344 29.328125 L 35.992188 35.777344 L 37.558594 35.777344 L 37.558594 36.855469 L 12.980469 36.855469 C 10.628906 36.671875 10.851562 32.535156 10.742188 31.417969 L 12.792969 12.929688 C 12.792969 12.113281 13.648438 11.144531 15.253906 11.144531 Z M 15.253906 11.144531 "/>
<path style=" stroke:none;fill-rule:evenodd;fill:rgb(19.607843%,29.019608%,36.862745%);fill-opacity:1;" d="M 15.253906 11.144531 L 16.972656 11.144531 L 15.402344 36.859375 L 12.980469 36.859375 C 10.109375 36.523438 10.035156 32.011719 10.929688 29.554688 L 12.792969 12.929688 C 12.792969 12.113281 13.648438 11.144531 15.253906 11.144531 Z M 15.253906 11.144531 "/>
<path style=" stroke:none;fill-rule:evenodd;fill:rgb(99.607843%,99.607843%,99.607843%);fill-opacity:1;" d="M 13.277344 29.328125 L 37.074219 29.328125 C 35.992188 31.527344 36.027344 33.726562 37.074219 35.851562 L 13.277344 35.851562 C 10.742188 35.851562 10.742188 29.328125 13.277344 29.328125 Z M 13.277344 29.328125 "/>
<path style=" stroke:none;fill-rule:evenodd;fill:rgb(92.54902%,94.117647%,94.509804%);fill-opacity:1;" d="M 11.75 30.558594 L 36.589844 30.558594 C 36.550781 30.632812 36.550781 30.707031 36.511719 30.78125 L 11.675781 30.78125 C 11.710938 30.707031 11.710938 30.632812 11.75 30.558594 Z M 36.402344 31.269531 C 36.402344 31.34375 36.402344 31.378906 36.363281 31.453125 L 11.488281 31.453125 C 11.488281 31.378906 11.523438 31.34375 11.523438 31.269531 Z M 36.328125 31.9375 C 36.289062 32.011719 36.289062 32.085938 36.289062 32.125 L 11.375 32.125 C 11.414062 32.085938 11.414062 32.011719 11.414062 31.9375 Z M 36.289062 32.644531 C 36.289062 32.683594 36.289062 32.757812 36.289062 32.832031 L 11.375 32.832031 C 11.375 32.757812 11.375 32.683594 11.375 32.644531 Z M 36.328125 33.316406 C 36.328125 33.390625 36.328125 33.464844 36.328125 33.503906 L 11.449219 33.503906 C 11.449219 33.464844 11.414062 33.390625 11.414062 33.316406 Z M 36.4375 33.988281 C 36.4375 34.0625 36.476562 34.136719 36.476562 34.210938 L 11.601562 34.210938 C 11.5625 34.136719 11.5625 34.0625 11.5625 33.988281 Z M 36.625 34.695312 C 36.625 34.769531 36.664062 34.808594 36.664062 34.882812 L 11.933594 34.882812 C 11.898438 34.84375 11.859375 34.808594 11.824219 34.769531 C 11.785156 34.734375 11.785156 34.695312 11.785156 34.695312 Z M 36.625 34.695312 "/>
</g>
</svg>
